<svg width="200" height="200" viewBox="0 0 200 200" fill="none" xmlns="http://www.w3.org/2000/svg">
  <!-- Background circle -->
  <circle cx="100" cy="100" r="100" fill="url(#gradient1)"/>
  
  <!-- Triangle shape -->
  <path d="M100 40 L160 140 L40 140 Z" fill="url(#gradient2)" stroke="#1e293b" stroke-width="3"/>
  
  <!-- Inner eye/play button -->
  <circle cx="100" cy="105" r="25" fill="#0ea5e9" opacity="0.8"/>
  <circle cx="100" cy="105" r="15" fill="#1e293b"/>
  <polygon points="95,100 95,110 110,105" fill="#0ea5e9"/>
  
  <!-- Circuit pattern -->
  <g stroke="#64748b" stroke-width="1" opacity="0.3">
    <line x1="50" y1="60" x2="80" y2="80"/>
    <line x1="120" y1="80" x2="150" y2="60"/>
    <line x1="60" y1="120" x2="90" y2="140"/>
    <line x1="110" y1="140" x2="140" y2="120"/>
    <circle cx="50" cy="60" r="2" fill="#64748b"/>
    <circle cx="150" cy="60" r="2" fill="#64748b"/>
    <circle cx="60" cy="120" r="2" fill="#64748b"/>
    <circle cx="140" cy="120" r="2" fill="#64748b"/>
  </g>
  
  <!-- WiFi symbol -->
  <g transform="translate(75, 50)" opacity="0.6">
    <path d="M25 20 Q15 10 5 20" stroke="#0ea5e9" stroke-width="2" fill="none"/>
    <path d="M20 18 Q15 13 10 18" stroke="#0ea5e9" stroke-width="2" fill="none"/>
    <circle cx="15" cy="20" r="2" fill="#0ea5e9"/>
  </g>
  
  <defs>
    <linearGradient id="gradient1" x1="0%" y1="0%" x2="100%" y2="100%">
      <stop offset="0%" style="stop-color:#f8fafc;stop-opacity:1" />
      <stop offset="100%" style="stop-color:#e2e8f0;stop-opacity:1" />
    </linearGradient>
    <linearGradient id="gradient2" x1="0%" y1="0%" x2="100%" y2="100%">
      <stop offset="0%" style="stop-color:#1e293b;stop-opacity:1" />
      <stop offset="50%" style="stop-color:#334155;stop-opacity:1" />
      <stop offset="100%" style="stop-color:#0ea5e9;stop-opacity:0.8" />
    </linearGradient>
  </defs>
</svg>